<?xml version="1.0" encoding="UTF-8"?>
<svg width="151px" height="86px" viewBox="0 0 151 86" version="1.1" xmlns="http://www.w3.org/2000/svg" xmlns:xlink="http://www.w3.org/1999/xlink">
    <title>Shape</title>
    <g id="Page-1" stroke="none" stroke-width="1" fill="none" fill-rule="evenodd">
        <g id="-" transform="translate(-126.000000, -295.000000)" fill="#FFFFFF" fill-rule="nonzero">
            <path d="M127.72714,334.011816 C127.414152,334.011816 127.165731,334.253871 127.125263,334.598991 L126.028364,342.930994 L127.125263,351.119462 C127.165731,351.464583 127.414,351.70497 127.72714,351.70497 C128.030276,351.70497 128.27718,351.46625 128.325531,351.122493 L128.325531,351.120826 L128.325531,351.122493 L129.625682,342.930842 L128.325531,334.597324 C128.278696,334.253719 128.02876,334.011816 127.72714,334.011816 Z M133.895811,329.459468 C133.844126,329.101464 133.587673,328.854559 133.271502,328.854559 C132.953663,328.854559 132.690693,329.109497 132.647193,329.459468 C132.647193,329.462651 131.172738,342.930994 131.172738,342.930994 L132.647193,356.104083 C132.689177,356.457388 132.952148,356.712326 133.271502,356.712326 C133.586006,356.712326 133.84261,356.463906 133.894144,356.107417 L135.5717,342.930994 L133.895811,329.459468 L133.895811,329.459468 Z M157.13181,317.033307 C156.526902,317.033307 156.026727,317.52848 155.997778,318.157639 L154.823428,342.94221 L155.997778,358.959323 C156.028395,359.585148 156.526902,360.078805 157.13181,360.078805 C157.733536,360.078805 158.232043,359.583481 158.26751,358.95614 L158.26751,358.96099 L159.595096,342.94221 L158.26751,318.157639 C158.231892,317.52848 157.733384,317.033307 157.13181,317.033307 Z M145.105638,325.647529 C144.641081,325.647529 144.26201,326.018568 144.224724,326.513741 L142.901989,342.935693 L144.224724,358.82367 C144.260191,359.31566 144.64093,359.686699 145.105638,359.686699 C145.565344,359.686699 145.944416,359.31566 145.984884,358.82367 L147.488289,342.935693 L145.984884,326.510407 C145.944416,326.018568 145.565344,325.647529 145.105638,325.647529 Z M169.353203,360.07729 C170.103314,360.07729 170.713072,359.47223 170.743689,358.697868 L171.895607,342.950243 L170.745356,309.952953 C170.714739,309.178592 170.104829,308.573683 169.35487,308.573683 C168.598242,308.573683 167.986968,309.180259 167.962565,309.954621 L166.941451,342.948576 L167.962565,358.702718 C167.986816,359.470714 168.598091,360.07729 169.353203,360.07729 L169.353203,360.07729 Z M194.373311,360.151558 C195.405793,360.151558 196.257606,359.301412 196.276855,358.256047 L196.276855,358.267263 L196.276855,358.256047 L197.080318,342.959944 L196.276704,304.850564 C196.25897,303.806866 195.405642,302.955205 194.373159,302.955205 C193.339162,302.955205 192.485833,303.80535 192.469615,304.852231 L191.751789,342.94706 C191.751789,342.971311 192.469615,358.265596 192.469615,358.265596 C192.485985,359.301261 193.340829,360.151558 194.373311,360.151558 L194.373311,360.151558 Z M181.767996,360.09184 C182.666644,360.09184 183.390836,359.370679 183.415087,358.451267 L183.415087,358.462483 L184.39255,342.953578 L183.41342,309.717568 C183.389169,308.798004 182.664977,308.078662 181.766329,308.078662 C180.861316,308.078662 180.137123,308.798156 180.117723,309.717568 L179.248328,342.955245 L180.11939,358.460967 C180.138791,359.370679 180.862983,360.09184 181.767996,360.09184 L181.767996,360.09184 Z M151.095307,359.946638 C151.629281,359.946638 152.061705,359.519064 152.102022,358.95614 L153.518426,342.935844 L152.102022,327.696276 C152.063372,327.133352 151.6311,326.708961 151.095307,326.708961 C150.553451,326.708961 150.121027,327.136383 150.087227,327.702793 L148.840125,342.935844 L150.087227,358.954625 C150.122694,359.519064 150.553299,359.946638 151.095307,359.946638 Z M139.16447,359.069058 C139.554758,359.069058 139.870929,358.76092 139.916097,358.335014 L141.506653,342.93251 L139.917612,326.949348 C139.870778,326.521926 139.554607,326.213636 139.164319,326.213636 C138.769029,326.213636 138.452858,326.523442 138.412541,326.949348 L137.012355,342.93251 L138.412541,358.331831 C138.451342,358.759253 138.767513,359.069058 139.16447,359.069058 L139.16447,359.069058 Z M188.046554,309.164193 C187.070607,309.164193 186.288061,309.940222 186.268812,310.933902 L185.475201,342.956761 L186.268812,358.365631 C186.288213,359.346428 187.06894,360.122457 188.046554,360.122457 C189.020834,360.122457 189.79853,359.348095 189.820962,358.354415 L189.820962,358.367298 L190.711425,342.958428 L189.820962,310.930568 C189.798379,309.940222 189.020683,309.164193 188.046554,309.164193 Z M163.219847,360.109574 C163.894174,360.109574 164.450732,359.559381 164.483016,358.857621 L165.721934,342.946909 L164.483016,312.49369 C164.449065,311.790262 163.894174,311.241889 163.219847,311.241889 C162.539155,311.241889 161.984264,311.791929 161.955163,312.49369 L160.858264,342.946909 L161.95683,358.864138 C161.984112,359.559381 162.539003,360.109574 163.219847,360.109574 Z M177.054379,358.607685 L177.054379,358.5995 L178.118994,342.95191 L177.054379,308.843171 C177.028461,307.99636 176.360652,307.331734 175.536273,307.331734 C174.707044,307.331734 174.039235,307.994693 174.016803,308.843171 L173.071472,342.950243 L174.018318,358.606018 C174.040902,359.444796 174.708863,360.107755 175.536425,360.107755 C176.362319,360.107755 177.026946,359.444796 177.054531,358.601168 L177.054531,358.607685 L177.054379,358.607685 Z M257.580098,323.290645 C255.052245,323.290645 252.640645,323.802036 250.443513,324.723115 C248.975425,308.094728 235.031309,295.050624 218.022182,295.050624 C213.860273,295.050624 209.803098,295.870153 206.22033,297.255788 C204.828177,297.794613 204.457138,298.349504 204.444255,299.425486 L204.444255,357.983224 C204.458806,359.112407 205.334718,360.052887 206.436618,360.16429 C206.483453,360.16914 257.249528,360.194907 257.578734,360.194907 C267.767447,360.194907 276.028516,351.933837 276.028516,341.743609 C276.028516,331.55323 267.768962,323.290645 257.580098,323.290645 Z M200.672634,299.373953 C199.564368,299.373953 198.654656,300.283816 198.638438,301.401631 L197.806026,342.964794 L198.640105,358.04946 C198.654656,359.15136 199.564519,360.059556 200.672634,360.059556 C201.777565,360.059556 202.687429,359.15136 202.703495,358.033393 L202.703495,358.051127 L203.608508,342.964794 L202.703495,301.398448 C202.687429,300.283816 201.777565,299.373953 200.672634,299.373953 Z M140.927662,371.924309 C138.745081,371.411251 138.154572,371.137064 138.154572,370.272368 C138.154572,369.662761 138.646562,369.031934 140.121017,369.031934 C141.380851,369.031934 142.364983,369.543174 143.24908,370.448187 L145.234925,368.522211 C143.936441,367.165525 142.363467,366.358879 140.221203,366.358879 C137.504648,366.358879 135.302666,367.893052 135.302666,370.391804 C135.302666,373.105025 137.074043,373.911822 139.609929,374.500512 C142.205382,375.089354 142.678123,375.484493 142.678123,376.370105 C142.678123,377.412288 141.908611,377.865476 140.279254,377.865476 C138.961369,377.865476 137.722451,377.413803 136.757872,376.289471 L134.771723,378.060848 C135.813754,379.59502 137.822183,380.558084 140.120865,380.558084 C143.879603,380.558084 145.531393,378.788375 145.531393,376.173521 C145.531544,373.182627 143.111759,372.4357 140.927662,371.924309 L140.927662,371.924309 Z M153.597242,366.358879 C149.841838,366.358879 147.620456,369.269139 147.620456,373.458481 C147.620456,377.647976 149.841687,380.556417 153.597242,380.556417 C157.352797,380.556417 159.577211,377.647976 159.577211,373.458481 C159.577211,369.269139 157.352797,366.358879 153.597242,366.358879 Z M153.597242,377.825311 C151.376011,377.825311 150.44993,375.916916 150.44993,373.459997 C150.44993,371.001562 151.375859,369.093168 153.597242,369.093168 C155.821807,369.093168 156.744554,371.001562 156.744554,373.459997 C156.744554,375.916916 155.821807,377.825311 153.597242,377.825311 Z M170.690489,374.305293 C170.690489,376.507274 169.606473,377.865476 167.857832,377.865476 C166.107523,377.865476 165.04594,376.468473 165.04594,374.266643 L165.04594,366.573499 L162.290735,366.573499 L162.290735,374.305444 C162.290735,378.315785 164.534701,380.558084 167.85768,380.558084 C171.358298,380.558084 173.444027,378.256067 173.444027,374.266794 L173.444027,366.573499 L170.690489,366.573499 L170.690489,374.305293 Z M185.321814,372.39705 C185.321814,373.164894 185.360464,374.894286 185.360464,375.405677 C185.183129,375.050705 184.731456,374.363495 184.3974,373.850588 L179.517665,366.571984 L176.883259,366.571984 L176.883259,380.342099 L179.598299,380.342099 L179.598299,374.28286 C179.598299,373.515168 179.559497,371.785624 179.559497,371.274233 C179.735316,371.627539 180.190172,372.316416 180.522561,372.829474 L185.578116,380.341948 L188.036551,380.341948 L188.036551,366.571832 L185.321663,366.571832 L185.321663,372.39705 L185.321814,372.39705 L185.321814,372.39705 Z M195.883233,366.573499 L191.576121,366.573499 L191.576121,380.343463 L195.684678,380.343463 C199.225613,380.343463 202.727898,378.296384 202.727898,373.458481 C202.727898,368.422176 199.816122,366.573499 195.883233,366.573499 L195.883233,366.573499 Z M195.684678,377.668741 L194.329811,377.668741 L194.329811,369.249738 L195.784865,369.249738 C198.69664,369.249738 199.896908,370.645074 199.896908,373.458481 C199.896757,375.976634 198.577205,377.668741 195.684678,377.668741 Z M211.243753,369.091652 C212.48267,369.091652 213.269764,369.64336 213.761754,370.587023 L216.318557,369.407823 C215.452345,367.618713 213.877855,366.358879 211.282251,366.358879 C207.686449,366.358879 205.166629,369.269139 205.166629,373.458481 C205.166629,377.804394 207.584747,380.556417 211.183732,380.556417 C213.682484,380.556417 215.334425,379.396617 216.278088,377.449422 L213.958338,376.071819 C213.230659,377.293003 212.501616,377.823795 211.262699,377.823795 C209.197886,377.823795 207.99777,375.93465 207.99777,373.458481 C207.996406,370.903194 209.180456,369.091652 211.243753,369.091652 L211.243753,369.091652 Z M221.456564,366.573499 L218.702875,366.573499 L218.702875,380.343463 L226.978494,380.343463 L226.978494,377.626908 L221.456564,377.626908 L221.456564,366.573499 L221.456564,366.573499 Z M234.232848,366.358879 C230.474261,366.358879 228.252879,369.269139 228.252879,373.458481 C228.252879,377.647976 230.474261,380.556417 234.232848,380.556417 C237.988251,380.556417 240.211149,377.647976 240.211149,373.458481 C240.211301,369.269139 237.988251,366.358879 234.232848,366.358879 Z M234.232848,377.825311 C232.008282,377.825311 231.085536,375.916916 231.085536,373.459997 C231.085536,371.001562 232.008282,369.093168 234.232848,369.093168 C236.452715,369.093168 237.376825,371.001562 237.376825,373.459997 C237.376825,375.916916 236.452715,377.825311 234.232848,377.825311 Z M251.32276,374.305293 C251.32276,376.507274 250.243595,377.865476 248.493286,377.865476 C246.739795,377.865476 245.679879,376.468473 245.679879,374.266643 L245.679879,366.573499 L242.926341,366.573499 L242.926341,374.305444 C242.926341,378.315785 245.16864,380.558084 248.493286,380.558084 C251.993904,380.558084 254.078117,378.256067 254.078117,374.266794 L254.078117,366.573499 L251.32276,366.573499 L251.32276,374.305293 L251.32276,374.305293 Z M261.826128,366.573499 L257.520532,366.573499 L257.520532,380.343463 L261.629241,380.343463 C265.171691,380.343463 268.670641,378.296384 268.670641,373.458481 C268.670641,368.422176 265.760533,366.573499 261.826128,366.573499 L261.826128,366.573499 Z M261.629241,377.668741 L260.272555,377.668741 L260.272555,369.249738 L261.729276,369.249738 C264.637717,369.249738 265.837833,370.645074 265.837833,373.458481 C265.837985,375.976634 264.519948,377.668741 261.629241,377.668741 L261.629241,377.668741 Z" id="Shape"></path>
        </g>
    </g>
</svg>